<?xml version="1.0" ?>

<!-- Uploaded to: SVG Repo, www.svgrepo.com, Generator: SVG Repo Mixer Tools -->
<svg width="800px" height="800px" viewBox="0 0 32 32" id="svg5" version="1.1" xmlns="http://www.w3.org/2000/svg" xmlns:svg="http://www.w3.org/2000/svg">

<defs id="defs2"/>

<g id="layer1" transform="translate(-300,-52)">

<path d="m 316,54 c -7.72012,-10e-7 -14,6.279874 -14,14 0,7.720127 6.27988,13.999997 14,13.999997 a 1,1 0 0 0 1,-1 1,1 0 0 0 -1,-1 c -6.63924,0 -12,-5.36075 -12,-11.999997 0,-6.639247 5.36076,-12.000001 12,-12 6.63924,-10e-7 12,5.360753 12,12 v 6.999997 c 0,1.11641 -0.88359,2 -2,2 -1.11641,0 -2,-0.88359 -2,-2 V 68 67.9961 67.9941 c -0.003,-4.403692 -3.59554,-7.994101 -8,-7.9941 -4.40643,-10e-7 -8,3.593575 -8,8 0,4.406427 3.59357,7.999997 8,7.999997 2.386,0 4.53214,-1.05488 6,-2.7207 v 1.7207 c 0,2.1973 1.80271,4 4,4 2.19729,0 4,-1.8027 4,-4 V 68 c 0,-7.720126 -6.27988,-14.000001 -14,-14 z m 0,8 c 3.32424,0 5.9979,2.672365 6,5.996094 v 0.0039 c 0,3.325547 -2.67445,5.999997 -6,5.999997 -3.32555,0 -6,-2.67445 -6,-5.999997 0,-3.325547 2.67445,-6 6,-6 z" id="circle31494" style="color:#000000;fill:#000000;fill-rule:evenodd;stroke-linecap:round;stroke-linejoin:round;stroke-miterlimit:4.1;-inkscape-stroke:none"/>

</g>

</svg>