<?xml version="1.0" standalone="no"?>
<!DOCTYPE svg PUBLIC "-//W3C//DTD SVG 20010904//EN"
 "http://www.w3.org/TR/2001/REC-SVG-20010904/DTD/svg10.dtd">
<svg version="1.0" xmlns="http://www.w3.org/2000/svg"
 width="236.000000pt" height="213.000000pt" viewBox="0 0 236.000000 213.000000"
 preserveAspectRatio="xMidYMid meet">

<g transform="translate(0.000000,213.000000) scale(0.100000,-0.100000)"
fill="#000000" stroke="none">
<path d="M159 2116 c-56 -20 -96 -53 -126 -104 l-28 -47 -3 -714 c-3 -822 -6
-788 78 -864 37 -33 64 -48 101 -56 42 -9 940 -17 939 -8 -1 1 -7 27 -14 57
l-13 55 -446 5 c-571 6 -527 -18 -527 286 l0 190 265 222 264 221 107 -157
c257 -376 274 -400 296 -405 47 -13 61 11 127 218 l63 198 53 -53 53 -52 51
35 51 35 -106 99 c-120 112 -134 121 -168 105 -20 -9 -34 -42 -86 -196 -34
-102 -63 -186 -65 -186 -2 0 -78 112 -169 250 -161 243 -172 257 -216 250 -14
-2 -102 -72 -367 -292 -78 -65 -144 -118 -147 -118 -3 0 -6 185 -6 410 0 461
1 469 64 495 54 23 1603 22 1646 0 56 -29 60 -49 59 -322 l-1 -248 -82 -75
-81 -75 110 -6 c60 -4 125 -10 143 -14 l32 -7 0 342 c0 228 -4 355 -11 381
-16 50 -61 105 -112 132 l-42 22 -825 2 c-657 2 -832 0 -861 -11z"/>
<path d="M1176 1835 c-153 -54 -166 -265 -21 -335 37 -18 57 -21 97 -17 157
19 220 197 109 308 -33 33 -92 60 -131 59 -8 -1 -32 -7 -54 -15z m104 -105
c31 -16 41 -63 22 -101 -21 -41 -60 -56 -99 -37 -76 36 -54 148 30 148 15 0
37 -4 47 -10z"/>
<path d="M1667 1075 c-92 -25 -160 -66 -238 -144 -116 -116 -161 -225 -160
-391 1 -254 179 -472 428 -525 93 -20 156 -19 247 5 98 25 165 61 237 128 140
129 203 321 165 502 -43 208 -196 374 -391 425 -72 18 -221 18 -288 0z m304
-115 c119 -46 224 -160 263 -285 29 -89 19 -220 -21 -307 -85 -182 -274 -287
-463 -257 -297 46 -464 356 -336 624 57 122 161 208 291 242 70 18 197 10 266
-17z"/>
<path d="M1778 799 c-56 -21 -67 -86 -38 -229 5 -25 12 -62 15 -82 l6 -38 52
0 52 0 18 93 c25 132 23 208 -5 235 -29 26 -65 34 -100 21z"/>
<path d="M1760 340 l0 -50 55 0 55 0 0 50 0 50 -55 0 -55 0 0 -50z"/>
</g>
</svg>
