<?xml version="1.0" encoding="utf-8"?><!-- Uploaded to: SVG Repo, www.svgrepo.com, Generator: SVG Repo Mixer Tools -->
<svg fill="#000000" width="800px" height="800px" viewBox="-11.71 0 100 100" xmlns="http://www.w3.org/2000/svg">
  <path id="_file-person" data-name="
file-person" d="M842.448,1187.95c-2.677-.236-5.377-.266-8.068-.287-8.776-.058-17.552-.055-26.328-.112a68.347,68.347,0,0,0-10.094,1,9.982,9.982,0,0,1-2.653.083,1.763,1.763,0,0,1-1.576-2.146,1.681,1.681,0,0,1,.1-.585c.734-1.329.354-2.718.247-4.09-.053-.693-.289-1.381-.279-2.069.076-5.382.186-10.761.293-16.142.017-.9.1-1.791.1-2.687.017-4.688.063-9.373.009-14.06-.039-3.387-.265-6.769-.319-10.156-.057-3.487.005-6.979-.009-10.469-.015-3.689-.061-7.375-.092-11.064-.005-.6.025-1.2-.005-1.8a2.977,2.977,0,0,1,.881-2.444,19.286,19.286,0,0,0,3.856-5.633,17.9,17.9,0,0,1,1.38-2.293,52.673,52.673,0,0,1,6.8-8.687c.213-.2.525-.436.554-.682.155-1.4,1.3-2.2,1.91-3.311.684-1.259,1.686-1.466,2.984-1.46,7.879.04,15.758.019,23.635.019v.167q11.37,0,22.739,0a14.621,14.621,0,0,1,3.554.308,10.9,10.9,0,0,0,2.964.041c3.724-.144,4.139-.088,4.183,3.768.074,6.277.518,12.55.442,18.831-.017,1.488-.2,2.974-.291,4.461a12.12,12.12,0,0,0,.275,4.735c.839,2.511.673,5.12.551,7.708-.129,2.686-.475,5.368-.473,8.051.008,7.979-.05,15.963.284,23.933.258,6.18.192,12.353.262,18.531a13.579,13.579,0,0,1-1.437,6.035,5.5,5.5,0,0,1-5.184,3.386c-.692.017-1.384.013-2.076.008-.6,0-1.21-.007-1.813,0q-.766.013-1.531.013C852.947,1188.856,847.7,1188.414,842.448,1187.95Zm18.619-6.125a5.388,5.388,0,0,0,1.49-.034,1.257,1.257,0,0,0,1.307-1,30.382,30.382,0,0,0,1.052-5.244,47,47,0,0,0-.277-8.058c-.369-2.661-.452-5.36-.647-8.044a10.058,10.058,0,0,1,.027-1.2c.139-3.084.4-6.169.4-9.256-.01-13.369-.089-26.736-.168-40.1-.008-1.493-.185-2.984-.242-4.475-.1-2.588-.2-5.175-.217-7.764-.013-1.731-.162-1.832-1.871-1.8a7.37,7.37,0,0,1-2.075-.193,9.26,9.26,0,0,0-3.547-.044,15.186,15.186,0,0,1-4.464.031,35.743,35.743,0,0,0-7.151-.435c-7.572.084-15.144.465-22.7-.434-1.867-.221-3.782.061-5.627-.541a.913.913,0,0,0-1.122,1.026,12.513,12.513,0,0,0,.307,2.363c1,3.662,1.381,7.431,2.026,11.155a4.924,4.924,0,0,1-.162,2.652,2.059,2.059,0,0,1-1.361,1.458,21.3,21.3,0,0,1-4.051.964c-3.679.218-7.289,1.13-11,1.043-.867-.02-1.066.27-.8,1.037a13.443,13.443,0,0,1,.787,4.089c.117,5.781.286,11.56.412,17.341.041,1.894.006,3.788.006,5.685h.044q0,6.584,0,13.17c0,.69.077,1.382.132,2.073a.344.344,0,0,0,.153.245.3.3,0,0,0,.256-.076c.215-.2.419-.416.616-.636.857-.964,1.7-1.942,2.573-2.893.244-.265.812-.141,1.066.161a2.052,2.052,0,0,1,.511,1.94,12.19,12.19,0,0,1-.517,1.4c-1.373,3.312-2.761,6.619-4.119,9.936a14.216,14.216,0,0,0-.591,1.981c-.038.159.109.368.169.552.142-.059.341-.079.418-.184.524-.729,1.025-1.473,1.526-2.217a4.562,4.562,0,0,1,2.355-1.757,1.536,1.536,0,0,1,2.02,1.216,3.437,3.437,0,0,1-.258,2.33c-.612,1.142-1.2,2.3-1.84,3.425-1.126,2-2.294,3.971-3.4,5.977a5.756,5.756,0,0,0-.4,1.407c-.011.054.109.176.19.211.167.075.43.21.511.143a4.547,4.547,0,0,0,1.031-1.02,25.806,25.806,0,0,1,3.68-4.7,5.885,5.885,0,0,1,.916-.753,1.4,1.4,0,0,1,2.093.928,4.036,4.036,0,0,1-.543,2.867c-.538.837-1,1.726-1.471,2.6-.169.31-.044.588.292.629a11.616,11.616,0,0,0,1.492.037c7.376-.067,14.75-.01,22.125-.447a83.7,83.7,0,0,1,14.63.389c2.767.32,5.56.409,8.346.553.635.033,1.271.03,1.907.026l.574,0A14.631,14.631,0,0,1,861.067,1181.824Zm-58.979-73.978a5.01,5.01,0,0,0-.725.923,1.238,1.238,0,0,0-.08.766c.02.095.332.13.646.24a13.779,13.779,0,0,0,1.577-.375.449.449,0,0,0,.266-.7c-.159-.247-.292-.512-.471-.743a.877.877,0,0,0-.654-.419A.776.776,0,0,0,802.088,1107.846Zm6.178.432c.031.039.111.04.166.057-.068-.036-.135-.074-.2-.111A.4.4,0,0,0,808.266,1108.278Zm-.806-.867c.026-.436,0-.847-.483-1.043C806.986,1106.786,806.984,1107.209,807.459,1107.411Zm.7-7.079c-.608.244-.925,1.014-.567,1.445,1.133,1.372,2.292,2.721,3.461,4.061.068.08.319.031.472-.008.057-.013.115-.163.115-.251.009-2.3-1.629-3.69-2.932-5.26a.265.265,0,0,0-.192-.052A1.071,1.071,0,0,0,808.155,1100.332Zm-1.892,5.293c-.039-.3-.149-.525-.5-.509A.543.543,0,0,0,806.263,1105.625Zm-.59-.674a.32.32,0,0,0-.022-.11c-.023-.054-.12-.076-.185-.111Zm28.583,55.851c-3.385,0-6.771.012-10.155-.008a14.1,14.1,0,0,1-2.37-.2,1.273,1.273,0,0,1-.978-1.019,1.255,1.255,0,0,1-.035-.3,90.479,90.479,0,0,1,.056-11.938,14.3,14.3,0,0,1,2.655-7.192,3.887,3.887,0,0,1,2.382-1.661c.388-.079.761-.24,1.154-.3.855-.132,1.651-.882,2.56-.375.8.438.591,1.42.976,2.105.821,1.479,1.57,2.993,2.341,4.5.467.91,1.013,1.414,1.16,1.129a8.075,8.075,0,0,0,.461-1.356c.029-.092.012-.2.041-.294a3.62,3.62,0,0,0-.236-3.385c-.572-.9.063-1.753,1.155-1.8.3-.014.6,0,.9,0,2.211.022,2.867.742,1.342,2.589a1.806,1.806,0,0,0-.258,2.187,19.245,19.245,0,0,1,.732,1.948.442.442,0,0,0,.72.119c.574-.809,1.14-1.622,1.691-2.447.718-1.075,1.39-2.182,2.133-3.241a1.5,1.5,0,0,1,2.1-.46c2.961,2.221,5.295,4.824,5.251,8.844-.031,2.885-.017,5.773-.052,8.659a6.712,6.712,0,0,1-.223,1.765c-.254.875-.6,1.651-1.795,1.636-.982-.013-1.967.279-2.955.316-3.582.135-7.166.219-10.749.323C834.256,1160.895,834.256,1160.848,834.255,1160.8Zm.97-23.694a6.624,6.624,0,0,1-4.334-3.4,40.347,40.347,0,0,1-1.69-3.81c-.229-.569-.436-1.12-1.047-1.366-1.364-.545-1.566-1.67-1.485-2.95a2.221,2.221,0,0,1,1.225-2.479,2.227,2.227,0,0,0,1.215-1.89,12.054,12.054,0,0,1,2.218-4.845c1.806-2.459,4.054-2.8,6.925-2.01a4.443,4.443,0,0,1,2.8,2.918,9.4,9.4,0,0,1,.671,3.495,1.89,1.89,0,0,0,.87,1.784,3.294,3.294,0,0,1,1.319,2.563,2.477,2.477,0,0,1-1.111,2.856,2.631,2.631,0,0,0-1.328,2.158c-.21,1.266-.643,2.494-.974,3.742a4.624,4.624,0,0,1-1.42,2.238,3.981,3.981,0,0,1-2.744,1.143A4.385,4.385,0,0,1,835.225,1137.107Zm1.737-18.363a6.074,6.074,0,0,0-.748,4.555,21.509,21.509,0,0,1,.563,3.163,14.7,14.7,0,0,0,.734,3.389c.022.09.126.245.154.236.173-.048.427-.093.482-.215a4.456,4.456,0,0,0,.479-1.371c.12-1.276.152-2.56.219-3.841l-.136,0c0-1.182,0-2.367,0-3.55a3.814,3.814,0,0,0-.683-2.227,1.5,1.5,0,0,0-.661-.477.044.044,0,0,0-.016,0C837.26,1118.4,837.058,1118.607,836.962,1118.744Z" transform="translate(-793.711 -1088.856)"/>
</svg>