<?xml version="1.0" ?>
<!DOCTYPE svg  PUBLIC '-//W3C//DTD SVG 1.1//EN'  'http://www.w3.org/Graphics/SVG/1.1/DTD/svg11.dtd'>
<!-- Uploaded to: SVG Repo, www.svgrepo.com, Generator: SVG Repo Mixer Tools -->
<svg fill="#000000" width="800px" height="800px" viewBox="0 0 2.33333 2.33333" style="shape-rendering:geometricPrecision; text-rendering:geometricPrecision; image-rendering:optimizeQuality; fill-rule:evenodd; clip-rule:evenodd" xml:space="preserve" xmlns="http://www.w3.org/2000/svg" xmlns:xlink="http://www.w3.org/1999/xlink">
<defs>
<style type="text/css">
   <![CDATA[
    .fil0 {fill:black;fill-rule:nonzero}
   ]]>
  </style>
</defs>
<g id="Layer_x0020_1">
<path class="fil0" d="M1.16667 0.602346c0.0962795,-0.181157 0.203366,-0.289012 0.416673,-0.289012 0.241047,0 0.436661,0.195614 0.436661,0.436661 0,0.213236 -0.105795,0.425378 -0.264476,0.636957 -0.157433,0.209909 -0.366075,0.418555 -0.574717,0.627189 -0.00780709,0.00780709 -0.0204764,0.00780709 -0.0282835,0 -0.208638,-0.208634 -0.417287,-0.417283 -0.574713,-0.627189 -0.158681,-0.211579 -0.264476,-0.42372 -0.264476,-0.636957 0,-0.241047 0.195614,-0.436661 0.436661,-0.436661 0.213307,0 0.32039,0.107858 0.416669,0.289012zm0.181689 -0.175343c-0.0621811,0.0497402 -0.112476,0.125201 -0.163051,0.226083 -0.00786614,0.0177087 -0.0294882,0.0157717 -0.0365276,0.00168898l7.87402e-005 -3.93701e-005c-0.0935039,-0.187012 -0.188091,-0.301402 -0.398858,-0.301402 -0.218957,0 -0.396661,0.177705 -0.396661,0.396661 0,0.203433 0.102543,0.407972 0.25635,0.613051 0.151551,0.202075 0.353697,0.405362 0.55698,0.608669 0.203287,-0.203307 0.405433,-0.406598 0.556984,-0.608669 0.153807,-0.205079 0.25635,-0.409618 0.25635,-0.613051 0,-0.218957 -0.177705,-0.396661 -0.396661,-0.396661 -0.0994016,0 -0.173591,0.0245591 -0.234984,0.0736693z"/>
<path class="fil0" d="M1.47615 1.36743l-0.0296181 0.0132047c-0.0743189,0.0445315 -0.168673,0.160815 -0.212748,0.238906 -0.0229606,0.0406811 -0.0354213,0.0734567 -0.0319488,0.0886693l-0.0194528 0.00445276 0.0194961 -0.00445276 0.0295709 -0.0131299c0.074311,-0.0445315 0.168681,-0.160811 0.212748,-0.238894 0.0229685,-0.0407008 0.0354331,-0.0735079 0.0319528,-0.0887559zm0.031815 -0.0244882c0.0666378,0.0889843 -0.301185,0.517528 -0.344524,0.376142 -0.000216535,-0.000637795 -0.000401575,-0.00129528 -0.000555118,-0.0019685l3.93701e-005 -7.87402e-006c-0.0229606,-0.100705 0.276906,-0.46515 0.345039,-0.374165z"/>
<path class="fil0" d="M1.70356 1.08683c-0.0168071,-0.0238228 -0.0990512,0.0267638 -0.122146,0.100059 -0.0307953,0.0977441 0.0938307,0.0313425 0.121846,-0.057563 0.00577559,-0.0183228 0.00633071,-0.0339409 0.000299213,-0.0424961zm0.0255906 -0.0311024c0.0592047,0.0555945 -0.033689,0.20478 -0.122776,0.21839 -0.0961063,0.014685 -0.0919803,-0.130839 0.0181614,-0.208488 0.0315669,-0.022252 0.0757717,-0.0369291 0.104614,-0.00990157z"/>
</g>
</svg>