<?xml version="1.0" ?>
<!DOCTYPE svg  PUBLIC '-//W3C//DTD SVG 1.1//EN'  'http://www.w3.org/Graphics/SVG/1.1/DTD/svg11.dtd'>
<!-- Uploaded to: SVG Repo, www.svgrepo.com, Generator: SVG Repo Mixer Tools -->
<svg fill="#000000" width="800px" height="800px" viewBox="0 0 2.33333 2.33333" style="shape-rendering:geometricPrecision; text-rendering:geometricPrecision; image-rendering:optimizeQuality; fill-rule:evenodd; clip-rule:evenodd" xml:space="preserve" xmlns="http://www.w3.org/2000/svg" xmlns:xlink="http://www.w3.org/1999/xlink">
<defs>
<style type="text/css">
   <![CDATA[
    .fil0 {fill:black;fill-rule:nonzero}
   ]]>
  </style>
</defs>
<g id="Layer_x0020_1">
<path class="fil0" d="M1.1789 0.3175l0.640098 0.41578 3.54331e-005 -5.11811e-005c0.00596457,0.00387402 0.0091063,0.0102756 0.0091063,0.0169094l0 0.833193c0,0.0076063 -0.00425197,0.0142244 -0.0105039,0.0176063l-0.640106 0.415783 3.54331e-005 5.11811e-005c-0.00731496,0.00475197 -0.0165827,0.0041063 -0.023122,-0.000940945l-0.640098 -0.41578 -3.54331e-005 5.11811e-005c-0.00596457,-0.00387402 -0.0091063,-0.0102756 -0.0091063,-0.0169094l0 -0.833193c0,-0.0076063 0.00425197,-0.0142244 0.0105039,-0.0176063l0.640106 -0.415783 -3.54331e-005 -5.11811e-005c0.00731496,-0.00475197 0.0165827,-0.0041063 0.023122,0.000940945zm0.29765 0.240886l-0.309878 -0.201283 -0.621469 0.403681 0 0.811764 0.621469 0.403681 0.621469 -0.403681 0 -0.811764 -0.311591 -0.202398z"/>
<path class="fil0" d="M1.16667 0.557169l-0.437378 0.284102 0 0.650787 0.437378 0.284102 0.437374 -0.284102 0 -0.650787 -0.437374 -0.284102zm-0.0122283 -0.0396024c0.00653937,-0.00504724 0.0158071,-0.00569291 0.023122,-0.000940945l-3.54331e-005 5.11811e-005 0.456012 0.296205c0.00625197,0.00338189 0.0105039,0.01 0.0105039,0.0176063l0 0.672354c-3.93701e-006,0.00653937 -0.00321654,0.0129449 -0.0091063,0.0167717l-3.54331e-005 -5.11811e-005 -0.456004 0.296201c-0.00653937,0.00504724 -0.0158071,0.00569291 -0.023122,0.000940945l3.54331e-005 -5.11811e-005 -0.456016 -0.296205c-0.00625197,-0.00338189 -0.0105039,-0.01 -0.0105039,-0.0176063l0 -0.672217c0,-0.00686614 0.00333071,-0.0131575 0.0091063,-0.0169094l0.456043 -0.29615z"/>
<path class="fil0" d="M0.533429 0.73172c-0.0240748,-0.0104882 -0.040311,0.0260354 -0.0161969,0.0365591l0.184091 0.0804882c0.0239252,0.0104409 0.0399449,-0.0261969 0.0161969,-0.0365591l-0.184091 -0.0804882z"/>
<path class="fil0" d="M1.18667 0.333331c0,-0.0263307 -0.04,-0.0263307 -0.04,0l0 0.200067c0,0.0263307 0.04,0.0263307 0.04,0l0 -0.200067z"/>
<path class="fil0" d="M1.81611 0.76828c0.0239724,-0.0104449 0.0080315,-0.0470197 -0.015937,-0.0365591l-0.184094 0.0804882c-0.0239724,0.0104646 -0.00802362,0.0470157 0.015937,0.0365591l0.184094 -0.0804882z"/>
<path class="fil0" d="M1.80017 1.60161c0.0239764,0.0104449 0.0399055,-0.0260984 0.015937,-0.0365591l-0.184094 -0.0804882c-0.0239606,-0.0104567 -0.0399094,0.0260945 -0.015937,0.0365591l0.184094 0.0804882z"/>
<path class="fil0" d="M1.14667 2c0,0.0263307 0.04,0.0263307 0.04,0l0 -0.200067c0,-0.0263307 -0.04,-0.0263307 -0.04,0l0 0.200067z"/>
<path class="fil0" d="M0.517232 1.56505c-0.0239724,0.0104449 -0.0080315,0.0470197 0.015937,0.0365591l0.184091 -0.0804882c0.0239724,-0.0104646 0.00802362,-0.0470157 -0.015937,-0.0365591l-0.184091 0.0804882z"/>
</g>
</svg>