<?xml version="1.0" ?>
<!DOCTYPE svg  PUBLIC '-//W3C//DTD SVG 1.1//EN'  'http://www.w3.org/Graphics/SVG/1.1/DTD/svg11.dtd'>
<!-- Uploaded to: SVG Repo, www.svgrepo.com, Generator: SVG Repo Mixer Tools -->
<svg fill="#000000" width="800px" height="800px" viewBox="0 0 2.33333 2.33333" style="shape-rendering:geometricPrecision; text-rendering:geometricPrecision; image-rendering:optimizeQuality; fill-rule:evenodd; clip-rule:evenodd" xml:space="preserve" xmlns="http://www.w3.org/2000/svg" xmlns:xlink="http://www.w3.org/1999/xlink">
<defs>
<style type="text/css">
   <![CDATA[
    .fil0 {fill:black;fill-rule:nonzero}
   ]]>
  </style>
</defs>
<g id="Layer_x0020_1">
<path class="fil0" d="M1.80585 0.467244c-0.244453,-0.244465 -0.663906,-0.0701417 -0.663906,0.274996 0,0.345122 0.419429,0.519472 0.663909,0.274992 0.151874,-0.151874 0.151874,-0.39811 -3.93701e-006,-0.549988zm-0.274996 -0.153909c0.236866,0 0.428906,0.192039 0.428906,0.428906 0,0.236866 -0.192039,0.428906 -0.428906,0.428906 -0.236866,0 -0.428909,-0.192035 -0.428909,-0.428906 0,-0.23687 0.192043,-0.428906 0.428909,-0.428906z"/>
<path class="fil0" d="M1.67361 0.599488c-0.126992,-0.126992 -0.344642,-0.036248 -0.344642,0.142752 0,0.179161 0.217744,0.269661 0.344646,0.142752 0.0788386,-0.0788425 0.0788386,-0.206661 -3.93701e-006,-0.285504zm0.0282795 -0.0282874c0.152075,0.152075 0.0436024,0.412925 -0.171031,0.412925 -0.214646,0 -0.323106,-0.260862 -0.171035,-0.412925 0.0944646,-0.0944606 0.247606,-0.0944606 0.342067,0z"/>
<path class="fil0" d="M1.25586 1.04552c0.0186181,-0.0186181 -0.00966535,-0.0469016 -0.0282835,-0.0282835l-0.848146 0.848142c-0.0186181,0.0186181 0.00966535,0.0469016 0.0282835,0.0282835l0.848146 -0.848142z"/>
<path class="fil0" d="M0.819736 1.45336c-0.0186181,-0.0186181 -0.0469016,0.00966535 -0.0282835,0.0282835l0.159346 0.159346 -0.330732 0.330728 -0.159346 -0.159346c-0.0186181,-0.0186181 -0.0469016,0.00966535 -0.0282835,0.0282835l0.173488 0.173488c0.00780709,0.00780709 0.0204764,0.00780709 0.0282835,0l0.359016 -0.359012c0.00780709,-0.00780709 0.00780709,-0.0204764 0,-0.0282835l-0.173488 -0.173488z"/>
<path class="fil0" d="M0.741425 1.53167c-0.0186181,-0.0186181 -0.0469016,0.00966535 -0.0282835,0.0282835l0.108437 0.108437c0.0186181,0.0186181 0.0469016,-0.00966535 0.0282835,-0.0282835l-0.108437 -0.108437zm-0.122244 0.339114c0.0186181,0.0186181 0.0469016,-0.00966535 0.0282835,-0.0282835l-0.108433 -0.108433c-0.0186181,-0.0186181 -0.0469016,0.00966535 -0.0282835,0.0282835l0.108433 0.108433z"/>
</g>
</svg>