<?xml version="1.0" ?>
<!DOCTYPE svg  PUBLIC '-//W3C//DTD SVG 1.1//EN'  'http://www.w3.org/Graphics/SVG/1.1/DTD/svg11.dtd'>
<!-- Uploaded to: SVG Repo, www.svgrepo.com, Generator: SVG Repo Mixer Tools -->
<svg fill="#000000" width="800px" height="800px" viewBox="0 0 2.33333 2.33333" style="shape-rendering:geometricPrecision; text-rendering:geometricPrecision; image-rendering:optimizeQuality; fill-rule:evenodd; clip-rule:evenodd" xml:space="preserve" xmlns="http://www.w3.org/2000/svg" xmlns:xlink="http://www.w3.org/1999/xlink">
<defs>
<style type="text/css">
   <![CDATA[
    .fil0 {fill:black;fill-rule:nonzero}
   ]]>
  </style>
</defs>
<g id="Layer_x0020_1">
<path class="fil0" d="M0.978559 0.552598l0.81735 0c0.0836575,0 0.152028,0.068374 0.152028,0.152031l0 1.16333c0,0.0836575 -0.0683701,0.152031 -0.152028,0.152031l-0.81735 0c-0.0836614,0 -0.152031,-0.0683701 -0.152031,-0.152031l0 -1.16333c0,-0.0836614 0.0683701,-0.152031 0.152031,-0.152031zm0.81735 0.04l-0.81735 0c-0.0615748,0 -0.112031,0.0504567 -0.112031,0.112031l0 1.16333c0,0.0615748 0.0504567,0.112031 0.112031,0.112031l0.81735 0c0.0615709,0 0.112028,-0.0504567 0.112028,-0.112031l0 -1.16333c0,-0.0615748 -0.0504567,-0.112031 -0.112028,-0.112031z"/>
<path class="fil0" d="M1.03072 0.651043c0.0392638,-0.0410787 0.113098,-0.0125866 0.113098,0.0474055 0,0.0548268 -0.0494764,0.104311 -0.0989488,0.153783 -0.00780709,0.00780709 -0.0204764,0.00780709 -0.0282835,0 -0.0492008,-0.0492008 -0.14024,-0.140047 -0.0794567,-0.200831 0.0253504,-0.0253504 0.068374,-0.0268346 0.0935906,-0.000358268zm0.0313386 0.0251339c-0.0115039,0.0092126 -0.0109528,0.022815 -0.0223858,0.0285276 -0.00987795,0.00493701 -0.0218976,0.000933071 -0.0268346,-0.00894488l7.87402e-005 -3.93701e-005c-0.00788583,-0.0157677 -0.0132598,-0.023815 -0.0287362,-0.023815 -0.0146457,0 -0.0265472,0.0118937 -0.0265472,0.0265433 0,0.0341142 0.0346693,0.0724843 0.0730945,0.111311 0.0340315,-0.0343858 0.095622,-0.0997638 0.065311,-0.130075 -0.00942126,-0.00942126 -0.0257677,-0.0100748 -0.0339803,-0.00350787z"/>
<path class="fil0" d="M1.74374 1.73365c0.038811,-0.0408268 0.113091,-0.0129685 0.113091,0.0473937 0,0.0548268 -0.0494764,0.104311 -0.0989488,0.153783 -0.00780709,0.00780709 -0.0204764,0.00780709 -0.0282835,0 -0.0494724,-0.0494724 -0.0989528,-0.0989528 -0.0989528,-0.153783 0,-0.0604094 0.0742244,-0.0882008 0.113094,-0.0473937zm0.0313307 0.025126c-0.011811,0.00944094 -0.0109409,0.0228031 -0.0223858,0.0285236 -0.00987795,0.00493701 -0.0218976,0.000933071 -0.0268346,-0.00894488l7.87402e-005 -3.93701e-005c-0.0230866,-0.0461969 -0.0552835,-0.0166339 -0.0552835,0.00272835 0,0.0341142 0.0346693,0.0724843 0.0730945,0.111311 0.0384252,-0.0388268 0.0730906,-0.0771969 0.0730906,-0.111311 0,-0.0246378 -0.0289409,-0.0325197 -0.0417598,-0.0222677z"/>
<path class="fil0" d="M1.38723 1.06009c0.034685,-0.0574016 0.0764646,-0.0892717 0.147744,-0.0892717 0.0925945,0 0.16774,0.0751457 0.16774,0.16774 0,0.166224 -0.181654,0.337677 -0.301343,0.457362 -0.00780709,0.00780709 -0.0204764,0.00780709 -0.0282835,0 -0.119685,-0.119681 -0.301335,-0.291142 -0.301335,-0.457362 0,-0.146709 0.171091,-0.213012 0.267882,-0.135587 0.0180276,0.0144213 0.0332874,0.0334331 0.0475945,0.0571181zm0.0724409 -0.0260236c-0.0412362,0.0329882 -0.0477283,0.077563 -0.0635,0.0854449 -0.00987795,0.00493701 -0.0218937,0.000929134 -0.0268307,-0.00894882l7.87402e-005 -3.93701e-005c-0.0311496,-0.0623071 -0.0608031,-0.0997047 -0.129929,-0.0997047 -0.0705079,0 -0.127736,0.0572362 -0.127736,0.12774 0,0.146047 0.168055,0.307413 0.275476,0.414933 0.107421,-0.10752 0.275484,-0.268886 0.275484,-0.414933 0,-0.113969 -0.133122,-0.160417 -0.203043,-0.104492z"/>
<path class="fil0" d="M1.72513 0.694146c-0.0222008,-0.0432835 -0.0544882,-0.0156614 -0.0544882,0.00430315 0,0.0341142 0.0346693,0.0724843 0.0730945,0.111311 0.0384252,-0.0388268 0.0730906,-0.0771969 0.0730906,-0.111311 0,-0.0194685 -0.0322087,-0.048874 -0.0552795,-0.00272835l7.87402e-005 3.93701e-005c-0.00775197,0.0155118 -0.0302126,0.0143583 -0.0364961,-0.00161417zm0.0121181 -0.049063c0.0022874,0.00183071 0.00444094,0.0038189 0.00648819,0.0059685 0.0389528,-0.0408976 0.113091,-0.0127992 0.113091,0.0473976 0,0.0548268 -0.0494764,0.104311 -0.0989488,0.153783 -0.00780709,0.00780709 -0.0204764,0.00780709 -0.0282835,0 -0.0494724,-0.0494724 -0.0989528,-0.0989528 -0.0989528,-0.153783 0,-0.0575866 0.0671024,-0.0849646 0.106606,-0.0533661z"/>
<path class="fil0" d="M1.01212 1.77675c-0.0222362,-0.0434055 -0.0544921,-0.0154567 -0.0544921,0.00429134 0,0.0341102 0.0346693,0.0724843 0.0730945,0.111311 0.0384252,-0.0388268 0.0730906,-0.0772008 0.0730906,-0.111311 0,-0.024626 -0.0289331,-0.0325236 -0.0417638,-0.0222677 -0.011563,0.00924409 -0.0167598,0.0402756 -0.0402677,0.0285236 -0.00459055,-0.00229528 -0.00791339,-0.00611811 -0.00966142,-0.0105472zm0.0121142 -0.0490709c0.00228346,0.00182283 0.00442913,0.00381102 0.00647638,0.00595669 0.039185,-0.0409173 0.113102,-0.0127362 0.113102,0.0474055 0,0.0548228 -0.0494803,0.104315 -0.0989488,0.153783 -0.00780709,0.00780709 -0.0204764,0.00780709 -0.0282835,0 -0.0494724,-0.0494724 -0.0989528,-0.0989528 -0.0989528,-0.153783 0,-0.0573976 0.0669882,-0.0850433 0.106606,-0.0533622z"/>
<path class="fil0" d="M1.36859 1.10887c-0.030937,-0.0614134 -0.0605984,-0.0980551 -0.129102,-0.0980551 -0.0705079,0 -0.127736,0.0572362 -0.127736,0.12774 0,0.146047 0.168059,0.307413 0.27548,0.414933 0.107417,-0.107516 0.27548,-0.26889 0.27548,-0.414933 0,-0.113972 -0.133126,-0.160417 -0.203039,-0.104492 -0.0204961,0.0163937 -0.0373898,0.0419764 -0.0546299,0.0764606l7.87402e-005 3.93701e-005c-0.00777559,0.0155591 -0.0303071,0.0143268 -0.0365315,-0.00169291zm-0.0289528 -0.105902c0.0180276,0.0144213 0.0332874,0.0334331 0.0475945,0.0571181 0.0346811,-0.0574016 0.0764646,-0.0892717 0.14774,-0.0892717 0.0925945,0 0.16774,0.0751457 0.16774,0.16774 0,0.16622 -0.18165,0.337677 -0.301339,0.457362 -0.00780709,0.00780709 -0.0204764,0.00780709 -0.0282835,0 -0.119681,-0.119681 -0.301339,-0.291138 -0.301339,-0.457362 0,-0.146705 0.171087,-0.213016 0.267886,-0.135587z"/>
<path class="fil0" d="M0.865949 1.95006c0.0258386,-0.00473622 0.0186417,-0.0439606 -0.00718898,-0.0392205 -0.0569213,0.0104449 -0.113386,-0.0248268 -0.128496,-0.0812362l-0.301091 -1.12369c-0.0159606,-0.0595709 0.0197323,-0.121311 0.0792244,-0.137252l0.789488 -0.211543c0.0595079,-0.015937 0.121295,0.0196732 0.137256,0.0792205l0.0378937 0.141417c0.00679921,0.0254094 0.0453858,0.0150787 0.0385906,-0.010315l-0.0378937 -0.141417c-0.0216378,-0.0807598 -0.105378,-0.129142 -0.186161,-0.107496l-0.789488 0.211543c-0.0808031,0.0216496 -0.129126,0.105437 -0.1075,0.186157l0.301091 1.12369c0.0204606,0.0763701 0.096878,0.124366 0.174276,0.110142z"/>
<path class="fil0" d="M0.573898 0.611587c0.00840551,-0.0154252 0.0211496,-0.0253937 0.0400472,-0.0304567l-7.87402e-006 -2.75591e-005c0.0354961,-0.00937402 0.0719213,0.0115433 0.0814646,0.0470394l2.75591e-005 -7.87402e-006c0.0148583,0.056 -0.0266614,0.123567 -0.0558307,0.174094l5.51181e-005 7.87402e-005c-0.00576378,0.00998819 -0.0182165,0.0131496 -0.0289173,0.00629528 -0.0465866,-0.0298386 -0.117685,-0.0619646 -0.133752,-0.121913l-2.75591e-005 7.87402e-006c-0.00948425,-0.0353189 0.0115551,-0.0719409 0.0470472,-0.0814724l-7.87402e-006 -2.3622e-005c0.0194606,-0.0046063 0.0341024,-0.0032874 0.0499016,0.00638583zm0.0368661 0.0162126c-0.00903543,0.0122756 -0.00473622,0.0248622 -0.014315,0.0333543 -0.00826378,0.00732677 -0.0209094,0.00656299 -0.0282362,-0.00170079l4.72441e-005 -6.29921e-005c-0.0125157,-0.0141181 -0.0192756,-0.0194252 -0.0347283,-0.0153504 -0.0132087,0.00348031 -0.0216575,0.017622 -0.0177087,0.0332283 0.0087874,0.0347283 0.0668228,0.0688543 0.0992126,0.0877913 0.0202638,-0.0355354 0.0515197,-0.0893937 0.0415472,-0.127409 -0.0056378,-0.0215 -0.0355118,-0.0238819 -0.0458189,-0.00985039z"/>
<path class="fil0" d="M1.31353 0.562988c-0.0126535,0.0230354 0.0223504,0.0422598 0.035,0.0192205 0.0227913,-0.0415118 0.0477677,-0.0931654 0.0356024,-0.138575 -0.0156693,-0.0584961 -0.0947559,-0.0657717 -0.121512,-0.0165906 -0.062811,-0.0382913 -0.176748,0.0577126 -0.0207323,0.162118 0.0218228,0.0146063 0.0439882,-0.0185394 0.022189,-0.033126 -0.104819,-0.0701457 -0.0465551,-0.105858 -0.025185,-0.0965079 0.0138858,0.0060748 0.0164646,0.0191496 0.0289961,0.0217126 0.0108189,0.0022126 0.0213937,-0.00476378 0.0236063,-0.0155827l-6.29921e-005 -2.75591e-005c0.0103189,-0.0504843 0.0490591,-0.0305394 0.0541102,-0.0116811 0.00862205,0.0321929 -0.015122,0.078252 -0.0320118,0.109039z"/>
<path class="fil0" d="M0.835126 1.69249c0.0270551,0.0188898 0.0541535,-0.0337677 -0.00240551,-0.0433583 -0.0584567,-0.00990945 -0.143008,0.075311 0.00279528,0.171728 0.0219291,0.0145 0.0439331,-0.0187992 0.0220315,-0.0332835 -0.109469,-0.0723898 -0.0468622,-0.112185 -0.0224213,-0.0950866z"/>
<path class="fil0" d="M0.853953 0.909972c0.0243819,-0.00977559 0.00952362,-0.0468071 -0.0148425,-0.0370315 -0.0782795,0.0314094 -0.121366,0.116772 -0.0993543,0.198957 0.0151654,0.0566299 0.0503622,0.105295 0.0927126,0.147409 0.0186181,0.0185118 0.0467441,-0.00977165 0.028126,-0.0282835 -0.0563661,-0.0560512 -0.11276,-0.14015 -0.0731496,-0.219524 0.0136142,-0.0272795 0.0368346,-0.0496063 0.0665079,-0.0615276z"/>
</g>
</svg>