<?xml version="1.0" ?>
<!DOCTYPE svg  PUBLIC '-//W3C//DTD SVG 1.1//EN'  'http://www.w3.org/Graphics/SVG/1.1/DTD/svg11.dtd'>
<!-- Uploaded to: SVG Repo, www.svgrepo.com, Generator: SVG Repo Mixer Tools -->
<svg fill="#000000" width="800px" height="800px" viewBox="0 0 2.33333 2.33333" style="shape-rendering:geometricPrecision; text-rendering:geometricPrecision; image-rendering:optimizeQuality; fill-rule:evenodd; clip-rule:evenodd" xml:space="preserve" xmlns="http://www.w3.org/2000/svg" xmlns:xlink="http://www.w3.org/1999/xlink">
<defs>
<style type="text/css">
   <![CDATA[
    .fil0 {fill:black;fill-rule:nonzero}
   ]]>
  </style>
</defs>
<g id="Layer_x0020_1">
<path class="fil0" d="M1.16667 0.313331c0.47128,0 0.853335,0.382055 0.853335,0.853335 0,0.47128 -0.382055,0.853335 -0.853335,0.853335 -0.47128,0 -0.853335,-0.382055 -0.853335,-0.853335 0,-0.47128 0.382055,-0.853335 0.853335,-0.853335zm0.575114 0.27822c-0.317626,-0.317626 -0.832602,-0.317626 -1.15023,0 -0.317626,0.317626 -0.317626,0.832602 0,1.15023 0.317626,0.317626 0.832602,0.317626 1.15023,0 0.317626,-0.317626 0.317626,-0.832602 0,-1.15023z"/>
<path class="fil0" d="M1.16667 0.514906c0.359953,0 0.65176,0.291807 0.65176,0.65176 0,0.359953 -0.291807,0.65176 -0.65176,0.65176 -0.359953,0 -0.65176,-0.291807 -0.65176,-0.65176 0,-0.359953 0.291807,-0.65176 0.65176,-0.65176zm0.432579 0.219181c-0.238906,-0.238906 -0.626252,-0.238906 -0.865157,0 -0.238906,0.238906 -0.238906,0.626252 0,0.865157 0.238906,0.238906 0.626252,0.238906 0.865157,0 0.238906,-0.238906 0.238906,-0.626252 0,-0.865157z"/>
<path class="fil0" d="M1.18487 0.689346l0.14228 0.256744 0.289783 0.0562598c0.00844094,-0.000704724 0.0256299,0.0184213 0.00987795,0.0342126l-0.20039 0.214839 0.0360039 0.292976 1.1811e-005 0c0.00189764,0.0154449 -0.0139882,0.0274646 -0.0287559,0.0203465l-0.267016 -0.124543 -0.267472 0.124756 3.93701e-006 7.87402e-006c-0.0140315,0.00654331 -0.0305315,-0.00472047 -0.0282087,-0.021252l0.0359213 -0.292291 -0.201291 -0.215807 -3.14961e-005 3.14961e-005c-0.0104055,-0.0111535 -0.00529921,-0.0306339 0.0119685,-0.0334646l0.288626 -0.0560709 0.143047 -0.25813 -5.51181e-005 -3.14961e-005c0.00799606,-0.0144331 0.0289803,-0.0133937 0.0356969,0.00141732zm0.111933 0.284236l-0.130138 -0.234835 -0.129335 0.233386c-0.00294882,0.00587795 -0.00999606,0.0117717 -0.0144882,0.0113976l-0.263465 0.051185 0.18222 0.195362c0.0044685,0.00422047 0.00694094,0.0104291 0.00613386,0.0169921l-1.1811e-005 0 -0.0327362 0.266378 0.242827 -0.11326c0.00525197,-0.00258661 0.0115906,-0.0028622 0.0173071,-0.00019685l-3.93701e-006 7.87402e-006 0.243232 0.113449 -0.0326693 -0.265811c-0.00088189,-0.00583858 0.000811024,-0.012 0.00514567,-0.0166496l3.14961e-005 3.14961e-005 0.183098 -0.196303 -0.262413 -0.0509803c-0.0060315,-0.000830709 -0.0116142,-0.00438976 -0.0147913,-0.010122l5.51181e-005 -3.14961e-005z"/>
</g>
</svg>