<?xml version="1.0" ?>
<!DOCTYPE svg  PUBLIC '-//W3C//DTD SVG 1.1//EN'  'http://www.w3.org/Graphics/SVG/1.1/DTD/svg11.dtd'>
<!-- Uploaded to: SVG Repo, www.svgrepo.com, Generator: SVG Repo Mixer Tools -->
<svg fill="#000000" width="800px" height="800px" viewBox="0 0 2.33333 2.33333" style="shape-rendering:geometricPrecision; text-rendering:geometricPrecision; image-rendering:optimizeQuality; fill-rule:evenodd; clip-rule:evenodd" xml:space="preserve" xmlns="http://www.w3.org/2000/svg" xmlns:xlink="http://www.w3.org/1999/xlink">
<defs>
<style type="text/css">
   <![CDATA[
    .fil0 {fill:black;fill-rule:nonzero}
   ]]>
  </style>
</defs>
<g id="Layer_x0020_1">
<path class="fil0" d="M1.36922 0.822803c0.241551,0.241551 0.241555,0.633177 -7.87402e-006,0.874736 -0.241547,0.241543 -0.633169,0.241543 -0.87472,-7.87402e-006 -0.241555,-0.241555 -0.241551,-0.633177 0,-0.874728 0.241555,-0.241555 0.633177,-0.241551 0.874728,0zm-0.0282756 0.0282913c-0.225941,-0.225941 -0.592236,-0.225941 -0.818169,-7.87402e-006 -0.225933,0.225933 -0.225933,0.592232 7.87402e-006,0.818169 0.225929,0.225925 0.592228,0.225921 0.818161,-1.5748e-005 0.225921,-0.225925 0.225921,-0.592217 0,-0.818146z"/>
<path class="fil0" d="M1.98585 0.562213c0.0186181,0.0186181 0.0469016,-0.00966535 0.0282835,-0.0282835 -0.105724,-0.105724 -0.278598,-0.105724 -0.384323,0l-0.178024 0.178028c-0.0186181,0.0186181 0.00966535,0.0469016 0.0282835,0.0282835l0.178024 -0.178028c0.0901024,-0.0901024 0.23765,-0.0901063 0.327756,0z"/>
<path class="fil0" d="M1.44434 0.961252c-0.0186181,0.0186181 0.00966535,0.0469016 0.0282835,0.0282835l0.0824961 -0.0825984c0.0329094,-0.0363268 0.0319055,-0.0879409 -0.00114567,-0.121l3.93701e-006 -7.87402e-005 -0.147795 -0.147795c-0.0336772,-0.0336772 -0.0886614,-0.0336772 -0.122339,0l-0.0813465 0.0813465c-0.0186181,0.0186181 0.00966535,0.0469016 0.0282835,0.0282835l0.0813465 -0.0813465c0.0180591,-0.0180591 0.0477165,-0.0180591 0.0657717,0l0.147791 0.147795 3.93701e-005 -3.93701e-005c0.017937,0.0179685 0.0180945,0.0476614 -4.72441e-005,0.0658031l-0.0813425 0.0813465z"/>
<path class="fil0" d="M0.829031 1.66444c0.0549291,0.010815 0.105949,0.0122717 0.14402,0.00587795 0.172669,-0.0289961 -0.10239,-0.156295 -0.264878,-0.129012 -0.0685039,0.0115039 -0.0736063,0.0374016 -0.0146024,0.0740039 0.0327598,0.0203228 0.0805118,0.038311 0.135461,0.0491299zm0.150579 0.0452559c-0.132941,0.0223307 -0.385276,-0.0503701 -0.365953,-0.148543 0.0255787,-0.129957 0.479437,-0.0403701 0.453909,0.0893189 -0.00603543,0.0306496 -0.0392126,0.0510433 -0.0879567,0.0592244z"/>
</g>
</svg>