<?xml version="1.0" standalone="no"?>
<!DOCTYPE svg PUBLIC "-//W3C//DTD SVG 20010904//EN"
 "http://www.w3.org/TR/2001/REC-SVG-20010904/DTD/svg10.dtd">
<svg version="1.0" xmlns="http://www.w3.org/2000/svg"
 width="260.000000pt" height="280.000000pt" viewBox="0 0 260.000000 280.000000"
 preserveAspectRatio="xMidYMid meet">

<g transform="translate(0.000000,280.000000) scale(0.100000,-0.100000)"
fill="#000000" stroke="none">
<path d="M803 2293 c-10 -3 -13 -70 -13 -284 l0 -279 -25 0 c-32 0 -65 -33
-65 -66 0 -32 -22 -27 -30 7 -5 22 -12 24 -65 27 -91 4 -100 -6 -100 -113 0
-107 9 -117 100 -113 53 3 60 5 65 27 7 31 30 40 30 12 l0 -21 600 0 600 0 0
21 c0 28 23 19 30 -12 5 -22 12 -24 65 -27 81 -4 97 9 103 81 6 81 -4 126 -34
139 -19 9 -24 19 -24 50 0 26 4 38 14 38 21 0 46 28 40 45 -4 10 -21 15 -54
15 -56 0 -60 -6 -60 -85 0 -48 -2 -54 -22 -57 -14 -2 -24 -12 -28 -27 -8 -34
-30 -39 -30 -7 0 33 -33 66 -65 66 l-25 0 0 178 0 178 -109 107 -108 107 -389
-1 c-214 0 -395 -3 -401 -6z m759 -150 l3 -98 95 -5 95 -5 3 -152 3 -153 -105
0 -104 0 -30 -34 c-16 -19 -39 -39 -50 -45 -28 -15 -316 -15 -344 0 -11 6 -34
26 -50 45 l-30 34 -104 0 -103 0 0 247 c0 135 2 250 5 255 3 4 165 8 359 8
l354 0 3 -97z"/>
<path d="M963 1994 c-3 -8 -1 -20 4 -25 13 -13 342 -14 355 -1 6 6 8 18 5 26
-9 24 -355 24 -364 0z"/>
<path d="M964 1885 c-4 -8 -4 -22 0 -30 5 -13 49 -15 338 -13 l333 3 0 25 0
25 -333 3 c-289 2 -333 0 -338 -13z"/>
<path d="M700 1456 c0 -3 -16 -119 -35 -258 -43 -312 -43 -330 -9 -357 26 -21
35 -21 644 -21 609 0 618 0 644 21 34 27 34 45 -9 357 -19 139 -35 255 -35
258 0 2 -270 4 -600 4 -330 0 -600 -2 -600 -4z m238 -154 c4 -26 -17 -37 -53
-28 -15 4 -25 14 -25 25 0 26 10 32 45 29 22 -2 31 -9 33 -26z m112 13 c16
-20 -3 -45 -35 -45 -12 0 -28 7 -35 15 -16 20 3 45 35 45 12 0 28 -7 35 -15z
m118 -12 c2 -14 -3 -23 -17 -28 -30 -9 -61 3 -61 24 0 26 10 32 45 29 22 -2
31 -9 33 -25z m107 -3 c0 -19 -6 -26 -26 -28 -30 -4 -52 18 -43 42 5 12 16 16
38 14 26 -2 31 -7 31 -28z m115 20 c22 -14 0 -44 -34 -48 -28 -4 -43 16 -32
43 6 17 43 20 66 5z m118 -17 c2 -14 -3 -23 -17 -28 -30 -9 -61 3 -61 24 0 26
10 32 45 29 22 -2 31 -9 33 -25z m112 12 c16 -20 -3 -45 -35 -45 -32 0 -51 25
-35 45 7 8 23 15 35 15 12 0 28 -7 35 -15z m118 -9 c5 -22 -13 -36 -46 -36
-25 0 -38 21 -28 46 9 23 70 15 74 -10z m-853 -91 c0 -27 -69 -35 -79 -10 -10
26 3 36 42 33 29 -2 37 -7 37 -23z m110 0 c0 -16 -7 -20 -35 -20 -29 0 -36 4
-38 23 -3 21 0 23 35 20 30 -2 38 -7 38 -23z m115 0 c0 -22 -4 -25 -34 -25
-37 0 -51 12 -42 35 3 9 19 15 41 15 31 0 35 -3 35 -25z m115 0 c0 -15 -8 -21
-34 -23 -35 -4 -53 11 -44 35 4 9 18 13 42 11 28 -2 36 -7 36 -23z m110 0 c0
-15 -8 -21 -29 -23 -33 -4 -51 10 -42 33 9 25 71 16 71 -10z m118 13 c8 -25
-5 -38 -38 -38 -36 0 -50 12 -41 35 7 18 73 20 79 3z m112 -13 c0 -16 -8 -21
-37 -23 -35 -3 -38 -1 -38 23 0 24 3 26 38 23 29 -2 37 -7 37 -23z m113 3 c-2
-17 -11 -24 -32 -26 -33 -4 -51 10 -43 32 4 11 19 16 42 16 32 0 36 -3 33 -22z
m116 13 c13 -20 -7 -41 -39 -41 -21 0 -35 6 -39 16 -9 24 2 34 39 34 19 0 36
-4 39 -9z m-856 -99 c4 -26 -17 -37 -53 -28 -15 4 -25 14 -25 25 0 26 10 32
45 29 22 -2 31 -9 33 -26z m112 13 c16 -20 -3 -45 -35 -45 -12 0 -28 7 -35 15
-16 20 3 45 35 45 12 0 28 -7 35 -15z m115 -15 c0 -21 -5 -26 -33 -28 -34 -3
-50 14 -38 44 4 10 16 14 38 12 28 -2 33 -7 33 -28z m110 0 c0 -19 -6 -26 -26
-28 -34 -4 -57 22 -39 44 8 8 25 14 39 12 20 -2 26 -9 26 -28z m115 20 c12 -7
12 -13 4 -27 -15 -25 -55 -29 -71 -7 -24 33 27 59 67 34z m115 -20 c0 -21 -5
-26 -33 -28 -34 -3 -50 14 -38 44 4 10 16 14 38 12 28 -2 33 -7 33 -28z m115
15 c16 -20 -3 -45 -35 -45 -32 0 -51 25 -35 45 7 8 23 15 35 15 12 0 28 -7 35
-15z m118 -9 c5 -22 -13 -36 -46 -36 -25 0 -38 21 -28 46 9 23 70 15 74 -10z
m-854 -82 c9 -24 -2 -34 -39 -34 -36 0 -50 12 -41 35 8 21 72 20 80 -1z m111
-9 c0 -15 -8 -21 -29 -23 -33 -4 -51 10 -42 33 9 25 71 16 71 -10z m115 0 c0
-22 -4 -25 -34 -25 -37 0 -51 12 -42 35 3 9 19 15 41 15 31 0 35 -3 35 -25z
m115 0 c0 -15 -8 -21 -34 -23 -35 -4 -53 11 -44 35 4 9 18 13 42 11 28 -2 36
-7 36 -23z m110 0 c0 -15 -8 -21 -29 -23 -33 -4 -51 10 -42 33 9 25 71 16 71
-10z m118 13 c8 -25 -5 -38 -38 -38 -36 0 -50 12 -41 35 7 18 73 20 79 3z
m112 -13 c0 -16 -8 -21 -37 -23 -35 -3 -38 -1 -38 23 0 24 3 26 38 23 29 -2
37 -7 37 -23z m113 3 c-2 -17 -11 -24 -32 -26 -33 -4 -51 10 -43 32 4 11 19
16 42 16 32 0 36 -3 33 -22z m116 6 c9 -24 -2 -34 -39 -34 -36 0 -50 12 -41
35 8 21 72 20 80 -1z m-219 -94 l0 -25 -273 -3 c-236 -2 -273 0 -278 13 -4 8
-4 22 0 30 5 13 42 15 278 13 l273 -3 0 -25z"/>
<path d="M620 793 c0 -30 6 -46 26 -64 l26 -24 628 0 628 0 26 24 c20 18 26
34 26 64 l0 40 -21 -19 c-20 -18 -46 -19 -659 -19 -613 0 -639 1 -659 19 l-21
19 0 -40z"/>
<path d="M1082 90 c0 -25 2 -39 5 -32 3 9 9 10 18 2 9 -8 11 -5 7 15 -2 14 -8
23 -12 20 -5 -3 -11 5 -13 17 -2 13 -5 3 -5 -22z"/>
<path d="M1456 121 c-4 -5 3 -7 14 -4 26 7 25 -7 -1 -41 l-20 -26 28 1 c16 1
21 3 11 6 -16 4 -16 6 -2 28 9 13 13 29 9 35 -8 12 -32 13 -39 1z"/>
<path d="M1525 120 c-3 -6 1 -7 9 -4 23 9 20 -16 -6 -43 l-21 -23 29 1 c18 1
22 3 11 6 -17 4 -18 6 -2 24 10 10 15 25 12 34 -7 17 -23 20 -32 5z"/>
<path d="M1597 123 c22 -4 22 -6 8 -33 -22 -42 -17 -51 5 -10 25 46 25 50 -7
49 -24 -2 -25 -2 -6 -6z"/>
<path d="M1643 114 c-4 -10 0 -22 10 -29 13 -9 14 -15 4 -26 -7 -7 -2 -5 11 6
26 22 26 58 -1 63 -9 2 -20 -4 -24 -14z m37 -9 c0 -8 -7 -15 -15 -15 -8 0 -15
7 -15 15 0 8 7 15 15 15 8 0 15 -7 15 -15z"/>
<path d="M1715 121 c-3 -6 0 -9 8 -5 10 3 14 -4 15 -26 1 -27 -2 -30 -21 -24
-17 5 -19 4 -10 -6 21 -22 45 -4 41 32 -3 32 -21 48 -33 29z"/>
<path d="M1787 110 c-21 -30 -22 -40 -3 -40 8 0 16 -5 18 -12 8 -22 14 16 8
47 l-5 30 -18 -25z m13 -15 c0 -8 -4 -15 -10 -15 -5 0 -7 7 -4 15 4 8 8 15 10
15 2 0 4 -7 4 -15z"/>
<path d="M1840 110 c0 -11 7 -20 15 -20 21 0 19 -28 -2 -33 -17 -4 -17 -5 0
-6 25 -1 34 29 14 44 -22 16 -21 22 1 28 13 4 11 5 -5 6 -17 1 -23 -5 -23 -19z"/>
<path d="M1909 113 c-12 -14 -12 -16 0 -8 11 6 13 1 9 -24 -3 -19 0 -31 6 -31
7 0 10 15 8 40 -2 22 -5 40 -7 40 -1 0 -9 -8 -16 -17z"/>
<path d="M1977 123 c22 -4 22 -6 8 -33 -22 -42 -17 -51 5 -10 25 46 25 50 -7
49 -24 -2 -25 -2 -6 -6z"/>
<path d="M2040 120 c-10 -6 -11 -10 -2 -10 6 0 12 -11 12 -24 0 -13 -6 -27
-12 -29 -7 -3 -4 -6 7 -6 18 -1 20 4 17 39 -2 22 -5 40 -6 40 0 0 -8 -5 -16
-10z"/>
<path d="M700 86 c0 -28 4 -36 18 -36 13 0 14 2 3 9 -8 5 -12 18 -8 30 3 12 1
24 -4 27 -5 3 -9 -11 -9 -30z"/>
<path d="M741 88 c-1 -30 3 -38 17 -38 11 0 13 3 5 8 -6 4 -13 21 -16 37 -4
27 -4 27 -6 -7z"/>
<path d="M928 115 c-7 -7 3 -65 11 -65 4 0 5 16 3 35 -4 36 -5 38 -14 30z"/>
<path d="M535 100 c-4 -6 -2 -17 5 -24 8 -11 8 -15 -2 -19 -8 -4 -7 -6 5 -6 9
-1 17 6 17 14 0 8 -5 15 -11 15 -6 0 -9 7 -5 15 6 17 0 20 -9 5z"/>
<path d="M609 78 c4 -28 6 -29 9 -9 2 13 0 27 -5 32 -6 6 -7 -3 -4 -23z"/>
<path d="M970 95 c-7 -8 -9 -22 -6 -31 8 -22 41 -13 42 11 1 15 0 16 -3 3 -5
-21 -33 -24 -33 -5 0 7 5 18 12 25 7 7 9 12 6 12 -3 0 -11 -7 -18 -15z"/>
<path d="M1031 96 c-14 -17 -4 -46 17 -46 13 0 12 3 -3 14 -16 12 -17 16 -6
30 7 9 11 16 8 16 -2 0 -10 -6 -16 -14z"/>
<path d="M1222 101 c-20 -12 -10 -46 13 -46 13 0 20 7 21 20 1 15 0 16 -3 3
-5 -21 -33 -24 -33 -5 0 7 5 18 12 25 14 14 9 15 -10 3z"/>
<path d="M1339 78 c4 -28 6 -29 9 -9 2 13 0 27 -5 32 -6 6 -7 -3 -4 -23z"/>
<path d="M641 78 c-1 -22 4 -28 19 -28 15 0 20 6 19 28 -2 23 -2 24 -6 5 -2
-13 -8 -23 -13 -23 -5 0 -11 10 -13 23 -4 19 -4 18 -6 -5z"/>
<path d="M784 75 c1 -12 9 -21 21 -22 14 -1 15 0 3 3 -9 3 -19 13 -21 22 -3
12 -4 11 -3 -3z"/>
<path d="M842 75 c0 -16 2 -22 5 -12 2 9 2 23 0 30 -3 6 -5 -1 -5 -18z"/>
<path d="M870 91 c0 -5 8 -12 17 -15 15 -6 15 -8 3 -17 -13 -9 -13 -10 -1 -7
23 6 23 22 1 36 -11 7 -20 8 -20 3z"/>
<path d="M1164 75 c1 -12 9 -21 21 -22 14 -1 15 0 3 3 -9 3 -19 13 -21 22 -3
12 -4 11 -3 -3z"/>
<path d="M1312 75 c0 -16 2 -22 5 -12 2 9 2 23 0 30 -3 6 -5 -1 -5 -18z"/>
<path d="M1281 64 c0 -11 3 -14 6 -6 3 7 2 16 -1 19 -3 4 -6 -2 -5 -13z"/>
</g>
</svg>
