<svg width="400" height="400" viewBox="0 0 200 200" xmlns="http://www.w3.org/2000/svg">

  <!-- Croix -->
  <path d="M100,0 C50,50 150,150 100,200" stroke="red" stroke-width="6" fill="none"/>
  <path d="M0,100 C50,50 150,150 200,100" stroke="blue" stroke-width="6" fill="none"/>

  <!-- Œuf -->
  <path d="M100,130 C60,130 80,60 100,60 C120,60 140,130 100,130 Z"
        fill="yellow" stroke="orange" stroke-width="3"/>

  <!-- Cercles restants -->
  <circle cx="115" cy="45" r="7" fill="green" stroke="black" stroke-width="2"/>
  <circle cx="128" cy="53" r="7" fill="purple" stroke="black" stroke-width="2"/>

  <!-- Ligne noire montée de 2 unités -->
  <line x1="115" y1="43" x2="100" y2="93" stroke="black" stroke-width="2"/>

  <!-- Courbe marron montée de 2 unités -->
  <path d="M114,93
           C114,86 116,80 119,76
           C122,73 128,73 134,74
           C140,76 145,73 142,66
           C138,58 132,56 128,51"
        stroke="brown" stroke-width="3" fill="none"/>

</svg>